Coordinates
version=1
nRows=10
nColumns=22
inDegrees=yes

Units are S.I. units (second, meters, Newtons, ...)
If the header above contains a line with 'inDegrees', this indicates whether rotational values are in degrees (yes) or radians (no).

endheader
time	pelvis_tilt	pelvis_list	pelvis_rotation	pelvis_tx	pelvis_ty	pelvis_tz	hip_flexion_r	hip_adduction_r	hip_rotation_r	knee_angle_r	ankle_angle_r	subtalar_angle_r	hip_flexion_l	hip_adduction_l	hip_rotation_l	knee_angle_l	ankle_angle_l	subtalar_angle_l	lumbar_extension	lumbar_bending	lumbar_rotation
      0.01000000	    -10.64392330	      2.74670633	    -33.06372936	     -1.00446471	      0.88234751	     -0.37675681	     10.00708428	      2.92681290	     -0.65919562	     -4.31819038	     10.07303106	     -2.12578827	      7.05548880	     -4.69374640	     -4.19086287	     -5.86170217	     14.02337032	      1.69674372	      6.38258590	      2.39815050	     11.19616290
      0.02000000	    -10.64656659	      2.74849809	    -33.06313580	     -1.00440691	      0.88233929	     -0.37672539	     10.00615650	      2.92700362	     -0.65917510	     -4.31878135	     10.07312813	     -2.12580699	      7.05483260	     -4.69318699	     -4.19078848	     -5.86229412	     14.02333588	      1.69677772	      6.38135399	      2.39833145	     11.19621780
      0.03000000	    -10.64842093	      2.74940693	    -33.05495560	     -1.00430787	      0.88233168	     -0.37670939	     10.00177687	      2.92371063	     -0.65973828	     -4.32108430	     10.07551356	     -2.12597334	      7.05502038	     -4.68958008	     -4.18909579	     -5.86749217	     14.02347654	      1.69726685	      6.38236232	      2.40223512	     11.19675777
      0.04000000	    -10.64558863	      2.74948723	    -33.02962214	     -1.00422415	      0.88232641	     -0.37672095	      9.98939394	      2.91638306	     -0.68348485	     -4.31399947	     10.09878693	     -2.12598177	      7.07552171	     -4.68373449	     -4.16526919	     -5.91212377	     14.02919483	      1.70120581	      6.37031733	      2.39797643	     11.18147631
      0.05000000	    -10.64882081	      2.75080212	    -33.02436769	     -1.00411225	      0.88231885	     -0.37669098	      9.98605820	      2.91459281	     -0.68476614	     -4.31709374	     10.09893363	     -2.12592444	      7.07463907	     -4.68085086	     -4.16458209	     -5.91531122	     14.03053357	      1.70152336	      6.37211186	      2.40227055	     11.18025259
      0.06000000	    -10.65131072	      2.75113289	    -33.01459563	     -1.00399215	      0.88231333	     -0.37667605	      9.98123670	      2.91064004	     -0.68871586	     -4.31989314	     10.10116491	     -2.12576834	      7.07736269	     -4.67776126	     -4.16083524	     -5.92584238	     14.03263960	      1.70207956	      6.37187744	      2.40834393	     11.17935299
      0.07000000	    -10.65597573	      2.74712202	    -32.97465488	     -1.00389166	      0.88230091	     -0.37669623	      9.97617455	      2.90938106	     -0.74486744	     -4.32096996	     10.12254274	     -2.12278165	      7.11873192	     -4.68034088	     -4.12791616	     -5.99902043	     14.06740498	      1.70647706	      6.36594746	      2.41002626	     11.13440408
      0.08000000	    -10.65984324	      2.74796290	    -32.96867244	     -1.00377463	      0.88229549	     -0.37668501	      9.97375468	      2.90588322	     -0.74539325	     -4.32347326	     10.12308908	     -2.12266641	      7.12001942	     -4.67751522	     -4.12524640	     -6.00364976	     14.06716653	      1.70675967	      6.36620064	      2.41759319	     11.13858155
      0.09000000	    -10.66522914	      2.74651990	    -32.95536948	     -1.00368339	      0.88228826	     -0.37668222	      9.97161423	      2.90600573	     -0.75880128	     -4.32409108	     10.13261757	     -2.12176213	      7.13940475	     -4.68016714	     -4.10159782	     -6.03883956	     14.06968551	      1.70783249	      6.36357821	      2.42193926	     11.15231515
      0.10000000	    -10.66849189	      2.74761515	    -32.95064325	     -1.00356186	      0.88228291	     -0.37665309	      9.96797993	      2.90357093	     -0.75966113	     -4.32778047	     10.13331870	     -2.12173257	      7.13875882	     -4.67831412	     -4.09992215	     -6.04384761	     14.07117623	      1.70792333	      6.36857262	      2.42660589	     11.15240973
